<svg xmlns="http://www.w3.org/2000/svg" version="1.1" xmlnsxlink="http://www.w3.org/1999/xlink" xmlnssvgjs="http://svgjs.dev/svgjs" width="1000" height="229" viewBox="0 0 1000 229"><g transform="matrix(1,0,0,1,-0.6060606060606233,0.05395201500471103)"><svg viewBox="0 0 396 91" data-background-color="#ffffff" preserveAspectRatio="xMidYMid meet" height="229" width="1000" xmlns="http://www.w3.org/2000/svg" xmlnsxlink="http://www.w3.org/1999/xlink"><g id="tight-bounds" transform="matrix(1,0,0,1,0.2400000000000091,-0.021439447010607182)"><svg viewBox="0 0 395.52 91.04287889402123" height="91.04287889402123" width="395.52"><g><svg viewBox="0 0 527.3736721230132 121.39365231338681" height="91.04287889402123" width="395.52"><g transform="matrix(1,0,0,1,131.85367212301324,31.417122270203585)"><svg viewBox="0 0 395.52 58.55940777297964" height="58.55940777297964" width="395.52"><g id="textblocktransform"><svg viewBox="0 0 395.52 58.55940777297964" height="58.55940777297964" width="395.52" id="textblock"><g><svg viewBox="0 0 395.52 58.55940777297964" height="58.55940777297964" width="395.52"><g transform="matrix(1,0,0,1,0,0)"><svg width="395.52" viewBox="3.25 -35.5 243.13 36" height="58.55940777297964" data-palette-color="#34344e"><path d="M23.2-10.35L23.2-35 27.9-35 27.9-11Q27.9-5.05 24.83-2.27 21.75 0.5 15.55 0.5 9.35 0.5 6.3-2.27 3.25-5.05 3.25-11L3.25-11 3.25-35 7.95-35 7.95-10.35Q7.95-6.95 10.03-5.43 12.1-3.9 15.5-3.9L15.5-3.9Q19-3.9 21.1-5.43 23.2-6.95 23.2-10.35L23.2-10.35ZM39.1 0L34.4 0 34.4-22.75Q34.4-28.8 37.37-32.15 40.35-35.5 45.85-35.5L45.85-35.5Q51.4-35.5 54.37-32.8 57.35-30.1 57.35-25.2L57.35-25.2Q57.35-22.05 55.85-20.05 54.35-18.05 50.75-16.9L50.75-16.9 50.75-16.7Q54.5-15.25 55.77-12.58 57.05-9.9 57.05-3.75L57.05-3.75 57.05 0 52.35 0 52.35-6.4Q52.35-10.2 50.2-12.33 48.05-14.45 44-14.45L44-14.45 41.3-14.45 41.3-18.85 44.15-18.85Q48.95-18.85 50.8-20.8 52.65-22.75 52.65-25.45L52.65-25.45Q52.65-28 50.82-29.55 49-31.1 46-31.1L46-31.1Q42.55-31.1 40.82-29.15 39.1-27.2 39.1-22.75L39.1-22.75 39.1 0ZM67.75-23.75L67.75 0 63.1 0 63.1-23.85Q63.1-29 66.42-32.25 69.75-35.5 74.65-35.5L74.65-35.5Q80.05-35.5 82.77-32.77 85.5-30.05 85.5-26.1L85.5-26.1Q85.5-21.05 80.8-18.85L80.8-18.85 80.8-18.65Q87.25-16.8 87.25-9.7L87.25-9.7Q87.25 0 75.8 0L75.8 0 69.55 0 69.55-4.4 75.75-4.4Q79.2-4.4 80.8-5.8 82.4-7.2 82.4-10.3L82.4-10.3Q82.4-13 80.67-14.45 78.95-15.9 76-15.9L76-15.9 71.05-15.9 71.05-20.05 74.25-20.05Q76.95-20.05 78.87-21.53 80.8-23 80.8-25.5L80.8-25.5Q80.8-27.9 79.32-29.5 77.84-31.1 74.55-31.1L74.55-31.1Q71.55-31.1 69.65-29.23 67.75-27.35 67.75-23.75L67.75-23.75ZM96.94-12.8L96.94 0 92.49 0 92.49-22Q92.49-27.4 95.97-31.2 99.44-35 104.94-35L104.94-35 116.39-35 116.39 0 111.69 0 111.69-30.6 104.94-30.6Q101.29-30.6 99.12-28.45 96.94-26.3 96.94-21.6L96.94-21.6 96.94-17.35Q99.74-20.3 104.94-20.3L104.94-20.3 109.49-20.3 109.49-15.9 104.94-15.9Q102.04-15.9 100.22-15.2 98.39-14.5 96.94-12.8L96.94-12.8ZM128.09-30.6L128.09 0 123.39 0 123.39-35 135.74-35Q141.94-35 144.99-32.23 148.04-29.45 148.04-23.5L148.04-23.5 148.04 0 143.34 0 143.34-24.15Q143.34-27.55 141.27-29.08 139.19-30.6 135.79-30.6L135.79-30.6 128.09-30.6ZM163.29-35L172.44-35 172.44-30.6 163.59-30.6Q158.54-30.6 158.54-26.5L158.54-26.5Q158.54-24.3 160.76-22.78 162.99-21.25 166.79-19.85L166.79-19.85Q168.49-19.2 169.69-18.53 170.89-17.85 172.09-16.75 173.29-15.65 173.89-13.93 174.49-12.2 174.49-9.95L174.49-9.95Q174.49-7.45 173.44-5.48 172.39-3.5 170.74-2.38 169.09-1.25 167.36-0.68 165.64-0.1 163.99-0.05L163.99-0.05Q163.29 0 161.99 0L161.99 0 154.19 0 154.19-4.4 161.84-4.4Q165.24-4.4 167.39-5.83 169.54-7.25 169.54-10L169.54-10Q169.54-11.35 168.94-12.38 168.34-13.4 167.21-14.15 166.09-14.9 164.91-15.45 163.74-16 162.09-16.6L162.09-16.6Q161.64-16.75 161.39-16.85L161.39-16.85Q153.54-19.85 153.54-26.65L153.54-26.65Q153.54-30.85 156.24-32.93 158.94-35 163.29-35L163.29-35ZM184.69-15.9L184.69 0 179.99 0 179.99-35 184.69-35 184.69-20.3 199.89-20.3 199.89-35 204.59-35 204.59 0 199.89 0 199.89-15.9 184.69-15.9ZM216.28-35L216.28 0 211.58 0 211.58-35 216.28-35ZM227.73-23.2L227.73 0 223.03 0 223.03-23Q223.03-28.9 226.21-32.2 229.38-35.5 234.63-35.5L234.63-35.5Q240.23-35.5 243.31-32.3 246.38-29.1 246.38-24.15L246.38-24.15Q246.38-21.05 245.25-18.75 244.13-16.45 242.23-15.2 240.33-13.95 238.18-13.35 236.03-12.75 233.68-12.75L233.68-12.75 229.93-12.75 229.93-17.15 234.23-17.15Q237.58-17.15 239.5-19.18 241.43-21.2 241.43-24.25L241.43-24.25Q241.43-27.25 239.66-29.18 237.88-31.1 234.58-31.1L234.58-31.1Q231.38-31.1 229.56-28.93 227.73-26.75 227.73-23.2L227.73-23.2Z" opacity="1" transform="matrix(1,0,0,1,0,0)" fill="#34344e" class="wordmark-text-0" data-fill-palette-color="primary" id="text-0"></path></svg></g></svg></g></svg></g></svg></g><g><svg viewBox="0 0 118.0292013735993 121.39365231338681" height="121.39365231338681" width="118.0292013735993"><g><svg xmlns="http://www.w3.org/2000/svg" xmlns:xlink="http://www.w3.org/1999/xlink" version="1.1" x="0" y="0" viewBox="1.3854691445134781 0 97.2289764461074 100.00051194216857" enable-background="new 0 0 100 100" xml:space="preserve" width="118.0292013735993" height="121.39365231338681" class="icon-icon-0" data-fill-palette-color="accent" id="icon-0"><path fill-rule="evenodd" clip-rule="evenodd" d="M34.299 89.102C18.86 84.527-25.674 64.976 24.795 0c27.291 18.521 37.807 34.817 39.754 48.283-13.054 4.675-22.041 13.764-20.921 30.208-7.11-16.909-12.688-40.295-15.081-54.876C27.347 40.648 29.86 70.944 34.299 89.102z" fill="#30c06b" data-fill-palette-color="accent"></path><path fill-rule="evenodd" clip-rule="evenodd" d="M51.772 93.184C48.014 82.738 40.207 48.778 98.54 50.65c1.712 53.348-26.544 51.379-39.376 47.778 5.312-10.34 12.15-19.672 20.803-27.551C69.352 76.754 59.899 84.209 51.772 93.184z" fill="#30c06b" data-fill-palette-color="accent"></path></svg></g></svg></g></svg></g><defs></defs></svg><rect width="395.52" height="91.04287889402123" fill="none" stroke="none" visibility="hidden"></rect></g></svg></g></svg>