<svg xmlns="http://www.w3.org/2000/svg" viewBox="0 0 500 500"><g id="freepik--background-simple--inject-2"><path d="M426.53,388.05s29.63-69.62,16.29-158.5c-4.55-30.39-13.94-63.25-36.28-86.07-31-31.7-83.42-47.34-126.28-34.7-38.17,11.24-64.76,41.26-96.68,63-34.81,23.7-68.14,5.93-108.88,40.74s-32.59,97-23.7,119.25,21,44.82,56.45,54.63Z" style="fill:#30C06B"></path><path d="M426.53,388.05s29.63-69.62,16.29-158.5c-4.55-30.39-13.94-63.25-36.28-86.07-31-31.7-83.42-47.34-126.28-34.7-38.17,11.24-64.76,41.26-96.68,63-34.81,23.7-68.14,5.93-108.88,40.74s-32.59,97-23.7,119.25,21,44.82,56.45,54.63Z" style="fill:#fff;opacity:0.7000000000000001"></path></g><g id="freepik--Store--inject-2"><rect x="107.45" y="188.34" width="292.5" height="198.05" style="fill:#fff;stroke:#263238;stroke-linecap:round;stroke-linejoin:round"></rect><rect x="298.12" y="194.07" width="98.76" height="162.29" style="fill:#fff;stroke:#263238;stroke-linecap:round;stroke-linejoin:round"></rect><rect x="110.62" y="194.07" width="98.76" height="162.29" style="fill:#fff;stroke:#263238;stroke-linecap:round;stroke-linejoin:round"></rect><polygon points="396.88 246.5 298.12 281 298.12 194.06 396.88 194.06 396.88 246.5" style="fill:#263238;stroke:#263238;stroke-linecap:round;stroke-linejoin:round"></polygon><polygon points="209.38 246.5 110.62 287.5 110.62 194.06 209.38 194.06 209.38 246.5" style="fill:#263238;stroke:#263238;stroke-linecap:round;stroke-linejoin:round"></polygon><rect x="213.33" y="188.34" width="80.74" height="198.05" style="fill:#30C06B;stroke:#263238;stroke-linecap:round;stroke-linejoin:round"></rect><path d="M217.9,296.5h71.6v82.41H217.9Zm0-100.69v82.41h71.6V195.81Z" style="fill:#fff;stroke:#263238;stroke-linecap:round;stroke-linejoin:round"></path><polygon points="289.5 369.51 289.5 359.36 239.2 378.91 264.91 378.91 289.5 369.51" style="fill:#263238"></polygon><polygon points="217.9 254.28 289.5 223.03 289.5 195.81 217.9 195.81 217.9 254.28" style="fill:#263238"></polygon><polygon points="260.72 278.22 289.5 267.22 289.5 258.12 237.78 278.22 260.72 278.22" style="fill:#263238"></polygon><polygon points="217.9 366.77 289.5 337.4 289.5 296.5 217.9 296.5 217.9 366.77" style="fill:#263238"></polygon><polygon points="405 192.11 103.37 192.11 133.53 138.7 374.84 138.7 405 192.11" style="fill:#30C06B;stroke:#263238;stroke-linecap:round;stroke-linejoin:round"></polygon><path d="M103.37,192.25c0,.37-.06.74-.06,1.11a16.72,16.72,0,1,0,33.43,0c0-.37,0-.74-.05-1.11Z" style="fill:#fff;stroke:#263238;stroke-linecap:round;stroke-linejoin:round"></path><path d="M136.87,192.25c0,.37-.06.74-.06,1.11a16.72,16.72,0,1,0,33.43,0c0-.37,0-.74-.05-1.11Z" style="fill:#30C06B;stroke:#263238;stroke-linecap:round;stroke-linejoin:round"></path><path d="M170.37,192.25c0,.37-.06.74-.06,1.11a16.72,16.72,0,1,0,33.43,0c0-.37,0-.74-.05-1.11Z" style="fill:#fff;stroke:#263238;stroke-linecap:round;stroke-linejoin:round"></path><path d="M203.87,192.25c0,.37-.06.74-.06,1.11a16.72,16.72,0,1,0,33.43,0c0-.37,0-.74-.05-1.11Z" style="fill:#30C06B;stroke:#263238;stroke-linecap:round;stroke-linejoin:round"></path><path d="M237.37,192.25c0,.37-.06.74-.06,1.11a16.72,16.72,0,1,0,33.43,0c0-.37,0-.74-.05-1.11Z" style="fill:#fff;stroke:#263238;stroke-linecap:round;stroke-linejoin:round"></path><path d="M270.87,192.25c0,.37-.06.74-.06,1.11a16.72,16.72,0,1,0,33.43,0c0-.37,0-.74-.05-1.11Z" style="fill:#30C06B;stroke:#263238;stroke-linecap:round;stroke-linejoin:round"></path><path d="M304.37,192.25c0,.37-.06.74-.06,1.11a16.72,16.72,0,1,0,33.43,0c0-.37,0-.74-.05-1.11Z" style="fill:#fff;stroke:#263238;stroke-linecap:round;stroke-linejoin:round"></path><path d="M337.87,192.25c0,.37-.06.74-.06,1.11a16.72,16.72,0,1,0,33.43,0c0-.37,0-.74-.05-1.11Z" style="fill:#30C06B;stroke:#263238;stroke-linecap:round;stroke-linejoin:round"></path><path d="M371.37,192.25c0,.37-.06.74-.06,1.11a16.72,16.72,0,1,0,33.43,0c0-.37,0-.74-.05-1.11Z" style="fill:#fff;stroke:#263238;stroke-linecap:round;stroke-linejoin:round"></path><polyline points="229.63 232.78 253.78 219.78 277.77 232.78" style="fill:none;stroke:#fff;stroke-linecap:round;stroke-linejoin:round"></polyline><path d="M256.14,219.78a2.36,2.36,0,1,0-2.36,2.36A2.36,2.36,0,0,0,256.14,219.78Z" style="fill:#fff;stroke:#263238;stroke-linecap:round;stroke-linejoin:round"></path><rect x="229.63" y="232.78" width="48.14" height="23.82" style="fill:#30C06B;stroke:#263238;stroke-linecap:round;stroke-linejoin:round"></rect><text transform="translate(232.11 248.1)" style="font-size:10.227350234985352px;fill:#263238;font-family:ChunkFive-Roman, ChunkFive">OPENED</text><circle cx="286.58" cy="288.48" r="4.9" style="fill:#fff;stroke:#263238;stroke-linecap:round;stroke-linejoin:round"></circle><circle cx="286.58" cy="288.48" r="1.25" style="fill:#fff;stroke:#263238;stroke-linecap:round;stroke-linejoin:round"></circle></g></svg>